# Blender v2.80 (sub 75) OBJ File: 'skybox.blend'
# www.blender.org
o Cube
v -1.000000 -1.000000 1.000000
v -1.000000 1.000000 1.000000
v -1.000000 -1.000000 -1.000000
v -1.000000 1.000000 -1.000000
v 1.000000 -1.000000 1.000000
v 1.000000 1.000000 1.000000
v 1.000000 -1.000000 -1.000000
v 1.000000 1.000000 -1.000000
vt 0.386311 0.497453
vt 0.295949 0.587816
vt 0.386311 0.587816
vt 0.386311 0.588637
vt 0.295949 0.678999
vt 0.386311 0.678999
vt 0.477495 0.497453
vt 0.387132 0.587816
vt 0.477495 0.587816
vt 0.477495 0.588637
vt 0.387132 0.678999
vt 0.477495 0.678999
vt 0.386311 0.679821
vt 0.295949 0.770183
vt 0.386311 0.770183
vt 0.568678 0.497453
vt 0.478316 0.587816
vt 0.568678 0.587816
vt 0.568404 0.497180
vt 0.478042 0.497180
vt 0.478042 0.587542
vt 0.386037 0.679547
vt 0.295675 0.679547
vt 0.295675 0.769909
vt 0.477221 0.588363
vt 0.386859 0.588363
vt 0.386859 0.678725
vt 0.477221 0.497180
vt 0.386859 0.497180
vt 0.386859 0.587542
vt 0.386037 0.588363
vt 0.295675 0.588363
vt 0.295675 0.678725
vt 0.386037 0.497180
vt 0.295675 0.497180
vt 0.295675 0.587542
vn -1.0000 0.0000 0.0000
vn 0.0000 0.0000 -1.0000
vn 1.0000 0.0000 0.0000
vn 0.0000 0.0000 1.0000
vn 0.0000 -1.0000 0.0000
vn 0.0000 1.0000 0.0000
s off
f 2/1/1 3/2/1 1/3/1
f 4/4/2 7/5/2 3/6/2
f 8/7/3 5/8/3 7/9/3
f 6/10/4 1/11/4 5/12/4
f 7/13/5 1/14/5 3/15/5
f 4/16/6 6/17/6 8/18/6
f 2/19/1 4/20/1 3/21/1
f 4/22/2 8/23/2 7/24/2
f 8/25/3 6/26/3 5/27/3
f 6/28/4 2/29/4 1/30/4
f 7/31/5 5/32/5 1/33/5
f 4/34/6 2/35/6 6/36/6
